<svg width="20" height="16" viewBox="0 0 20 16" fill="none" xmlns="http://www.w3.org/2000/svg">
<path d="M10 0.832048V6.59375L10.0005 7.06715L16.9769 7.06625L15.3621 5.45024C15.1125 5.20057 15.0899 4.80995 15.2942 4.53472L15.3623 4.45587C15.6119 4.20629 16.0026 4.18367 16.2778 4.38795L16.3566 4.45604L19.166 7.26634C19.4153 7.51577 19.4382 7.90596 19.2344 8.18119L19.1664 8.26005L16.3571 11.0758C16.0829 11.3507 15.6377 11.3512 15.3628 11.0769C15.1128 10.8276 15.0897 10.437 15.2936 10.1615L15.3616 10.0825L16.9675 8.4725L10.0005 8.4734L10 14.7969C10 15.2341 9.60516 15.5654 9.17458 15.4893L1.20583 14.0818C0.869884 14.0225 0.625 13.7306 0.625 13.3894V2.14064C0.625 1.79629 0.874388 1.50261 1.21419 1.44681L9.18294 0.138216C9.61101 0.0679193 10 0.398238 10 0.832048ZM6.72077 7.53127C6.20189 7.53127 5.78125 7.9519 5.78125 8.47078C5.78125 8.98966 6.20189 9.4103 6.72077 9.4103C7.23965 9.4103 7.66028 8.98966 7.66028 8.47078C7.66028 7.9519 7.23965 7.53127 6.72077 7.53127ZM10.9375 14.0949L11.6548 14.0951L11.7503 14.0887C12.0939 14.042 12.3585 13.7472 12.358 13.3908L12.3513 9.40627H10.9375V14.0949ZM10.9394 6.12502L10.9375 4.93002V1.43751L11.6362 1.43752C11.9917 1.43752 12.2857 1.70144 12.3327 2.04419L12.3393 2.13948L12.3456 6.12502H10.9394Z" fill="#262626"/>
</svg>
